<?xml version="1.0" encoding="UTF-8" standalone="no"?>
<!-- Created with Inkscape (http://www.inkscape.org/) -->

<svg
   width="124.04524mm"
   height="84.629601mm"
   viewBox="0 0 124.04524 84.629601"
   version="1.1"
   id="svg1"
   xml:space="preserve"
   inkscape:version="1.4 (86a8ad7, 2024-10-11)"
   sodipodi:docname="icon.svg"
   xmlns:inkscape="http://www.inkscape.org/namespaces/inkscape"
   xmlns:sodipodi="http://sodipodi.sourceforge.net/DTD/sodipodi-0.dtd"
   xmlns="http://www.w3.org/2000/svg"
   xmlns:svg="http://www.w3.org/2000/svg"><sodipodi:namedview
     id="namedview1"
     pagecolor="#ffffff"
     bordercolor="#000000"
     borderopacity="0.25"
     inkscape:showpageshadow="2"
     inkscape:pageopacity="0.0"
     inkscape:pagecheckerboard="0"
     inkscape:deskcolor="#d1d1d1"
     inkscape:document-units="mm"
     inkscape:zoom="0.7046647"
     inkscape:cx="310.07655"
     inkscape:cy="155.39305"
     inkscape:window-width="1920"
     inkscape:window-height="1001"
     inkscape:window-x="-9"
     inkscape:window-y="-9"
     inkscape:window-maximized="1"
     inkscape:current-layer="layer1" /><defs
     id="defs1" /><g
     inkscape:label="Layer 1"
     inkscape:groupmode="layer"
     id="layer1"
     transform="translate(-23.07967,-107.26141)"><path
       style="fill:#000000"
       d="m 33.016544,191.46993 c -3.353589,-0.89014 -6.121082,-2.88987 -7.983221,-5.76851 -1.874484,-2.89771 -2.190516,-5.21574 -1.814397,-13.3082 0.979566,-21.07605 4.527525,-38.54116 10.067576,-49.55846 2.486067,-4.94396 6.164662,-9.51003 9.617065,-11.93724 2.066519,-1.45286 5.007219,-2.65808 7.683555,-3.14903 2.287237,-0.41958 7.918031,-0.21086 10.856013,0.40239 4.733684,0.98808 7.93043,2.57921 11.391772,5.67007 3.51379,3.13771 6.60825,4.44118 11.113926,4.68151 5.338234,0.28474 9.523334,-1.13907 13.361464,-4.54568 2.57812,-2.28826 3.756793,-3.08943 6.413653,-4.3595 5.92056,-2.83023 13.22593,-3.10922 18.95926,-0.72405 10.68472,4.44502 18.22833,18.61299 22.10979,41.52532 1.97485,11.65759 2.95064,27.86162 1.90912,31.70287 -0.76357,2.81615 -1.64574,4.43478 -3.2936,6.04321 -2.89765,2.82832 -5.70531,3.74638 -11.45728,3.74638 -7.35468,0 -7.77561,-0.19987 -16.78157,-7.96858 -3.78354,-3.26375 -7.59354,-6.4752 -8.46666,-7.13656 -4.69267,-3.55449 -10.428083,-5.98711 -16.494313,-6.9959 -3.356384,-0.55815 -10.414814,-0.41603 -13.535905,0.27255 -4.95083,1.09226 -9.447155,3.01947 -13.673506,5.86073 -2.037817,1.36997 -7.745105,6.50129 -12.924154,11.61988 -3.515672,3.47464 -5.941751,4.35835 -11.888656,4.33047 -2.361951,-0.0111 -4.24466,-0.15807 -5.169932,-0.40367 z M 116.2657,151.53395 c 3.09842,-1.8158 3.59329,-6.16442 0.99697,-8.76074 -1.8121,-1.81211 -4.07764,-2.15768 -6.43714,-0.9819 -3.43191,1.7102 -4.137,6.23009 -1.39027,8.91219 1.88253,1.83824 4.5561,2.1633 6.83044,0.83045 z m -57.681686,-5.3556 c 0.985753,-0.79849 1.155445,-1.50422 1.155445,-4.80537 v -3.19239 l 3.373438,-0.006 c 2.79618,-0.005 3.470007,-0.0841 3.937783,-0.46303 1.450253,-1.17475 1.554969,-2.88865 0.255862,-4.18776 l -0.899583,-0.89958 h -3.33375 -3.33375 v -3.33375 -3.33375 l -0.899583,-0.89958 c -1.299106,-1.29911 -3.013012,-1.19439 -4.187762,0.25586 -0.378913,0.46777 -0.458145,1.1416 -0.463021,3.93778 l -0.0059,3.37344 h -3.192394 c -1.829956,0 -3.439036,0.12613 -3.770312,0.29555 -1.598384,0.81742 -2.034604,3.02588 -0.866343,4.38605 0.626544,0.72946 0.698914,0.74465 4.167187,0.87465 l 3.52957,0.13229 0.132292,3.52957 c 0.129994,3.46827 0.145184,3.54064 0.87465,4.16719 0.905939,0.77812 2.669653,0.8625 3.526154,0.16871 z m 49.297916,-3.18942 c 0.83734,-0.50817 1.40051,-1.13592 1.94368,-2.16659 0.66365,-1.25926 0.74701,-1.65461 0.63051,-2.99011 -0.24539,-2.81294 -2.23525,-4.83854 -5.03724,-5.12773 -2.86367,-0.29556 -5.642923,1.83365 -6.126043,4.69321 -0.26751,1.58335 0.44168,3.63409 1.672303,4.83576 1.91089,1.86593 4.60258,2.15992 6.91679,0.75546 z m 16.85043,0.0784 c 3.09842,-1.8158 3.5933,-6.16442 0.99698,-8.76074 -1.8121,-1.8121 -4.07765,-2.15768 -6.43714,-0.9819 -3.43192,1.7102 -4.137,6.23009 -1.39027,8.9122 1.88252,1.83824 4.5561,2.16329 6.83043,0.83044 z m -8.44524,-8.48632 c 1.32569,-0.76848 2.46844,-2.56261 2.64824,-4.15774 0.37629,-3.3385 -2.33091,-6.26555 -5.79496,-6.26555 -1.48198,0 -3.6098,1.22654 -4.46371,2.57301 -0.9937,1.56691 -1.1892,2.89005 -0.68385,4.62838 1.03061,3.54517 5.04593,5.10491 8.29428,3.2219 z"
       id="path1" /></g></svg>
